<?xml version="1.0" encoding="utf-8"?>
<!-- Generator: Adobe Illustrator 19.2.0, SVG Export Plug-In . SVG Version: 6.00 Build 0)  -->
<svg version="1.1" id="Layer_1" xmlns="http://www.w3.org/2000/svg" xmlns:xlink="http://www.w3.org/1999/xlink" x="0px" y="0px"
	 viewBox="0 0 50 50" style="enable-background:new 0 0 50 50;" xml:space="preserve">
<style type="text/css">
	.st0{fill:#787D8F;}
</style>
<path class="st0" d="M15.671,13.301h18.658c1.77,0,3.22,1.449,3.22,3.221v18.656c0,1.772-1.45,3.221-3.22,3.221H15.671
	c-1.771,0-3.221-1.449-3.221-3.221V16.523C12.45,14.75,13.9,13.301,15.671,13.301L15.671,13.301z M30.735,16.09
	c-0.622,0-1.13,0.509-1.13,1.13v2.705c0,0.621,0.507,1.129,1.13,1.129h2.837c0.62,0,1.128-0.508,1.128-1.129V17.22
	c0-0.621-0.507-1.13-1.128-1.13H30.735L30.735,16.09z M34.713,23.915h-2.21c0.21,0.682,0.322,1.405,0.322,2.155
	c0,4.175-3.494,7.559-7.8,7.559c-4.309,0-7.804-3.384-7.804-7.559c0-0.75,0.114-1.472,0.323-2.155h-2.305v10.603
	c0,0.549,0.447,0.999,0.998,0.999h17.479c0.548,0,0.996-0.449,0.996-0.999V23.915H34.713z M25.025,20.912
	c-2.786,0-5.043,2.186-5.043,4.884c0,2.699,2.256,4.886,5.043,4.886c2.782,0,5.039-2.188,5.039-4.886
	C30.064,23.099,27.808,20.912,25.025,20.912z"/>
<path class="st0" d="M25,0.25C11.33,0.25,0.25,11.33,0.25,25S11.33,49.75,25,49.75S49.75,38.67,49.75,25S38.67,0.25,25,0.25z
	 M25,47.83C12.39,47.83,2.17,37.61,2.17,25S12.39,2.17,25,2.17S47.83,12.39,47.83,25S37.61,47.83,25,47.83z"/>
</svg>
