<?xml version="1.0" encoding="utf-8"?>
<!-- Generator: Adobe Illustrator 19.2.0, SVG Export Plug-In . SVG Version: 6.00 Build 0)  -->
<svg version="1.1" xmlns="http://www.w3.org/2000/svg" xmlns:xlink="http://www.w3.org/1999/xlink" x="0px" y="0px"
	 viewBox="0 0 91.583 86.5" style="enable-background:new 0 0 91.583 86.5;" xml:space="preserve">
<style type="text/css">
	.st0{fill:#515866;}
	.st1{fill:#FFFFFF;}
	.st2{fill:#106952;}
	.st3{fill:#625B97;}
	.st4{fill:#635B97;}
	.st5{fill:#645C98;}
	.st6{fill:#655D98;}
	.st7{fill:#67609A;}
	.st8{fill:#6A6B87;}
	.st9{fill:none;stroke:#895656;stroke-width:3.619;stroke-linecap:round;stroke-miterlimit:10;}
	.st10{fill:#FFFFFF;stroke:#000000;stroke-width:2;stroke-miterlimit:10;}
	.st11{fill:#08604B;stroke:#08604B;stroke-miterlimit:10;}
	.st12{fill:#FFFFFF;stroke:#08604B;stroke-width:0.7725;stroke-linejoin:round;stroke-miterlimit:10;}
	.st13{fill:#FFFFFF;stroke:#08604B;stroke-width:0.6666;stroke-linejoin:round;stroke-miterlimit:10;}
	.st14{fill:#58595B;stroke:#58595B;stroke-width:1.5;stroke-linejoin:round;stroke-miterlimit:10;}
	.st15{fill:#58595B;stroke:#58595B;stroke-width:1.5;stroke-linecap:round;stroke-linejoin:round;stroke-miterlimit:10;}
	.st16{fill:url(#SVGID_1_);stroke:#58595B;stroke-width:0.6285;stroke-linejoin:round;stroke-miterlimit:10;}
	.st17{fill:url(#SVGID_2_);stroke:#58595B;stroke-width:0.6285;stroke-linejoin:round;stroke-miterlimit:10;}
	.st18{fill:url(#SVGID_3_);stroke:#58595B;stroke-width:0.6285;stroke-linejoin:round;stroke-miterlimit:10;}
	.st19{fill:url(#SVGID_4_);stroke:#58595B;stroke-width:0.6285;stroke-linejoin:round;stroke-miterlimit:10;}
	.st20{fill:url(#SVGID_5_);stroke:#58595B;stroke-width:0.6285;stroke-linejoin:round;stroke-miterlimit:10;}
	.st21{fill:url(#SVGID_6_);stroke:#58595B;stroke-width:0.6285;stroke-linejoin:round;stroke-miterlimit:10;}
	.st22{fill:url(#SVGID_7_);stroke:#58595B;stroke-width:0.6285;stroke-linejoin:round;stroke-miterlimit:10;}
	.st23{fill:url(#SVGID_8_);stroke:#58595B;stroke-width:0.6285;stroke-linejoin:round;stroke-miterlimit:10;}
	.st24{fill:#FFFFFF;stroke:#58595B;stroke-width:1.455;stroke-miterlimit:10;}
	.st25{fill:#FFFFFF;stroke:#58595B;stroke-width:1.4546;stroke-miterlimit:10;}
	.st26{display:none;fill:#FFFFFF;stroke:#58595B;stroke-width:1.455;stroke-miterlimit:10;}
	.st27{fill:#58595B;stroke:#58595B;stroke-linejoin:round;stroke-miterlimit:10;}
	.st28{fill:#58595B;stroke:#58595B;stroke-linecap:round;stroke-linejoin:round;stroke-miterlimit:10;}
	.st29{fill:url(#SVGID_9_);stroke:#08604B;stroke-width:0.4271;stroke-miterlimit:10;}
	.st30{fill:url(#SVGID_10_);stroke:#58595B;stroke-width:2;stroke-linejoin:round;stroke-miterlimit:10;}
	.st31{fill:url(#SVGID_11_);stroke:#58595B;stroke-width:2;stroke-linejoin:round;stroke-miterlimit:10;}
	.st32{fill:url(#SVGID_12_);stroke:#58595B;stroke-width:2;stroke-linejoin:round;stroke-miterlimit:10;}
	.st33{fill:url(#SVGID_13_);stroke:#58595B;stroke-width:2;stroke-linejoin:round;stroke-miterlimit:10;}
	.st34{fill:url(#SVGID_14_);stroke:#58595B;stroke-width:0.149;stroke-linejoin:round;stroke-miterlimit:10;}
	.st35{fill:url(#SVGID_15_);stroke:#58595B;stroke-width:0.149;stroke-linejoin:round;stroke-miterlimit:10;}
	.st36{fill:url(#SVGID_16_);stroke:#58595B;stroke-width:0.149;stroke-linejoin:round;stroke-miterlimit:10;}
	.st37{fill:url(#SVGID_17_);stroke:#58595B;stroke-width:0.149;stroke-linejoin:round;stroke-miterlimit:10;}
	.st38{fill:url(#SVGID_18_);stroke:#58595B;stroke-width:0.0787;stroke-linejoin:round;stroke-miterlimit:10;}
	.st39{fill:url(#SVGID_19_);stroke:#58595B;stroke-width:0.0787;stroke-linejoin:round;stroke-miterlimit:10;}
	.st40{fill:url(#SVGID_20_);stroke:#58595B;stroke-width:0.0787;stroke-linejoin:round;stroke-miterlimit:10;}
	.st41{fill:url(#SVGID_21_);stroke:#58595B;stroke-width:0.0787;stroke-linejoin:round;stroke-miterlimit:10;}
	.st42{fill:url(#SVGID_22_);stroke:#58595B;stroke-width:0.0787;stroke-linejoin:round;stroke-miterlimit:10;}
	.st43{fill:url(#SVGID_23_);stroke:#58595B;stroke-width:0.0787;stroke-linejoin:round;stroke-miterlimit:10;}
	.st44{fill:url(#SVGID_24_);stroke:#58595B;stroke-width:0.0787;stroke-linejoin:round;stroke-miterlimit:10;}
	.st45{fill:url(#SVGID_25_);stroke:#58595B;stroke-width:0.0787;stroke-linejoin:round;stroke-miterlimit:10;}
	.st46{fill:url(#SVGID_26_);stroke:#58595B;stroke-width:0.0787;stroke-linejoin:round;stroke-miterlimit:10;}
	.st47{fill:url(#SVGID_27_);stroke:#58595B;stroke-width:0.0787;stroke-linejoin:round;stroke-miterlimit:10;}
	.st48{fill:url(#SVGID_28_);stroke:#58595B;stroke-width:0.0787;stroke-linejoin:round;stroke-miterlimit:10;}
	.st49{fill:url(#SVGID_29_);stroke:#58595B;stroke-width:0.0787;stroke-linejoin:round;stroke-miterlimit:10;}
	.st50{fill:url(#SVGID_30_);stroke:#58595B;stroke-width:0.0787;stroke-linejoin:round;stroke-miterlimit:10;}
	.st51{fill:url(#SVGID_31_);stroke:#58595B;stroke-width:0.0787;stroke-linejoin:round;stroke-miterlimit:10;}
	.st52{fill:url(#SVGID_32_);stroke:#58595B;stroke-width:0.0787;stroke-linejoin:round;stroke-miterlimit:10;}
	.st53{fill:url(#SVGID_33_);stroke:#58595B;stroke-width:0.0787;stroke-linejoin:round;stroke-miterlimit:10;}
	.st54{fill:url(#SVGID_34_);stroke:#58595B;stroke-width:0.0787;stroke-linejoin:round;stroke-miterlimit:10;}
	.st55{fill:url(#SVGID_35_);stroke:#58595B;stroke-width:0.0787;stroke-linejoin:round;stroke-miterlimit:10;}
	.st56{fill:url(#SVGID_36_);stroke:#58595B;stroke-width:0.0787;stroke-linejoin:round;stroke-miterlimit:10;}
	.st57{fill:url(#SVGID_37_);stroke:#58595B;stroke-width:0.0787;stroke-linejoin:round;stroke-miterlimit:10;}
	.st58{fill:url(#SVGID_38_);stroke:#58595B;stroke-width:0.0787;stroke-linejoin:round;stroke-miterlimit:10;}
	.st59{fill:url(#SVGID_39_);stroke:#58595B;stroke-width:0.0787;stroke-linejoin:round;stroke-miterlimit:10;}
	.st60{fill:url(#SVGID_40_);stroke:#58595B;stroke-width:0.0787;stroke-linejoin:round;stroke-miterlimit:10;}
	.st61{fill:url(#SVGID_41_);stroke:#58595B;stroke-width:0.0787;stroke-linejoin:round;stroke-miterlimit:10;}
	.st62{fill:url(#SVGID_42_);stroke:#58595B;stroke-width:0.0787;stroke-linejoin:round;stroke-miterlimit:10;}
	.st63{fill:url(#SVGID_43_);stroke:#58595B;stroke-width:0.0787;stroke-linejoin:round;stroke-miterlimit:10;}
	.st64{fill:url(#SVGID_44_);stroke:#58595B;stroke-width:0.0787;stroke-linejoin:round;stroke-miterlimit:10;}
	.st65{fill:url(#SVGID_45_);stroke:#58595B;stroke-width:0.0787;stroke-linejoin:round;stroke-miterlimit:10;}
	.st66{fill:url(#SVGID_46_);stroke:#58595B;stroke-width:0.149;stroke-linejoin:round;stroke-miterlimit:10;}
	.st67{fill:url(#SVGID_47_);stroke:#58595B;stroke-width:0.149;stroke-linejoin:round;stroke-miterlimit:10;}
	.st68{fill:url(#SVGID_48_);stroke:#58595B;stroke-width:0.149;stroke-linejoin:round;stroke-miterlimit:10;}
	.st69{fill:url(#SVGID_49_);stroke:#58595B;stroke-width:0.149;stroke-linejoin:round;stroke-miterlimit:10;}
	.st70{fill:#58595B;}
	.st71{fill:#FFFFFF;stroke:#FFFFFF;stroke-width:0.25;stroke-linejoin:round;stroke-miterlimit:10;}
	.st72{fill:#FFFFFF;stroke:#FFFFFF;stroke-width:3.5;stroke-linecap:round;stroke-linejoin:round;stroke-miterlimit:10;}
	.st73{fill:#895656;}
	.st74{fill:#FFFFFF;stroke:#FFFFFF;stroke-width:0.5;stroke-linejoin:round;stroke-miterlimit:10;}
	.st75{fill:#4A5483;}
	.st76{fill:#805C87;}
	.st77{fill:#895656;stroke:#FFFFFF;stroke-width:0.5;stroke-linejoin:round;stroke-miterlimit:10;}
	.st78{fill:none;}
	.st79{fill:#FFD96B;stroke:#FFFFFF;stroke-width:0.08;stroke-miterlimit:10;}
	.st80{clip-path:url(#SVGID_51_);fill:#FFD96B;stroke:#FFFFFF;stroke-width:0.08;stroke-miterlimit:10;}
	.st81{clip-path:url(#SVGID_53_);fill:#FFD96B;stroke:#FFFFFF;stroke-width:0.08;stroke-miterlimit:10;}
	.st82{clip-path:url(#SVGID_55_);fill:#FFD96B;stroke:#FFFFFF;stroke-width:0.08;stroke-miterlimit:10;}
	.st83{clip-path:url(#SVGID_57_);fill:#FFD96B;stroke:#FFFFFF;stroke-width:0.08;stroke-miterlimit:10;}
	.st84{clip-path:url(#SVGID_59_);fill:#FFD96B;stroke:#FFFFFF;stroke-width:0.08;stroke-miterlimit:10;}
	.st85{clip-path:url(#SVGID_61_);fill:#FFD96B;stroke:#FFFFFF;stroke-width:0.08;stroke-miterlimit:10;}
	.st86{clip-path:url(#SVGID_63_);fill:#FFD96B;stroke:#FFFFFF;stroke-width:0.08;stroke-miterlimit:10;}
	.st87{clip-path:url(#SVGID_65_);fill:#FFD96B;stroke:#FFFFFF;stroke-width:0.08;stroke-miterlimit:10;}
	.st88{clip-path:url(#SVGID_67_);fill:#FFD96B;stroke:#FFFFFF;stroke-width:0.08;stroke-miterlimit:10;}
	.st89{clip-path:url(#SVGID_69_);fill:#FFD96B;stroke:#FFFFFF;stroke-width:0.08;stroke-miterlimit:10;}
	.st90{clip-path:url(#SVGID_71_);fill:#FFD96B;stroke:#FFFFFF;stroke-width:0.08;stroke-miterlimit:10;}
	.st91{clip-path:url(#SVGID_73_);fill:#FFD96B;stroke:#FFFFFF;stroke-width:0.08;stroke-miterlimit:10;}
	.st92{stroke:#000000;stroke-width:0.25;stroke-linejoin:round;stroke-miterlimit:10;}
	.st93{stroke:#000000;stroke-width:3.5;stroke-linecap:round;stroke-linejoin:round;stroke-miterlimit:10;}
	.st94{fill:#FFFFFF;stroke:#FFFFFF;stroke-width:1.5;stroke-linejoin:round;stroke-miterlimit:10;}
	.st95{fill:#FFFFFF;stroke:#FFFFFF;stroke-width:1.5;stroke-linecap:round;stroke-linejoin:round;stroke-miterlimit:10;}
	.st96{fill:#58595B;stroke:#58595B;stroke-width:0.25;stroke-linejoin:round;stroke-miterlimit:10;}
	.st97{fill:#58595B;stroke:#58595B;stroke-width:4;stroke-linecap:round;stroke-linejoin:round;stroke-miterlimit:10;}
	.st98{fill:#2E3192;}
	.st99{fill:#58595B;stroke:#58595B;stroke-width:0.25;stroke-miterlimit:10;}
	.st100{fill:#08604B;}
	.st101{fill:#444444;}
	.st102{fill:#FFD96B;}
	.st103{clip-path:url(#SVGID_75_);}
	.st104{clip-path:url(#SVGID_77_);}
	.st105{clip-path:url(#SVGID_79_);}
	.st106{clip-path:url(#SVGID_81_);}
	.st107{clip-path:url(#SVGID_83_);}
	.st108{clip-path:url(#SVGID_85_);}
	.st109{clip-path:url(#SVGID_87_);}
	.st110{clip-path:url(#SVGID_89_);}
	.st111{clip-path:url(#SVGID_91_);}
	.st112{clip-path:url(#SVGID_93_);}
	.st113{clip-path:url(#SVGID_95_);}
	.st114{clip-path:url(#SVGID_97_);}
	.st115{clip-path:url(#SVGID_99_);}
	.st116{clip-path:url(#SVGID_101_);}
	.st117{clip-path:url(#SVGID_103_);}
	.st118{clip-path:url(#SVGID_105_);}
	.st119{clip-path:url(#SVGID_107_);}
	.st120{clip-path:url(#SVGID_109_);}
	.st121{clip-path:url(#SVGID_111_);}
	.st122{clip-path:url(#SVGID_113_);}
	.st123{clip-path:url(#SVGID_115_);}
	.st124{clip-path:url(#SVGID_117_);}
	.st125{clip-path:url(#SVGID_119_);}
	.st126{clip-path:url(#SVGID_121_);}
	.st127{clip-path:url(#SVGID_123_);}
	.st128{clip-path:url(#SVGID_125_);}
	.st129{clip-path:url(#SVGID_127_);}
	.st130{clip-path:url(#SVGID_129_);}
	.st131{clip-path:url(#SVGID_131_);}
	.st132{clip-path:url(#SVGID_133_);}
	.st133{clip-path:url(#SVGID_135_);}
	.st134{clip-path:url(#SVGID_137_);}
	.st135{clip-path:url(#SVGID_139_);}
	.st136{clip-path:url(#SVGID_141_);}
	.st137{fill:none;stroke:#58595B;stroke-width:1.5;stroke-miterlimit:10;}
	.st138{fill:none;stroke:#454545;stroke-width:0.7;stroke-linecap:round;stroke-miterlimit:10;}
	.st139{fill:none;stroke:#58595B;stroke-linecap:round;stroke-miterlimit:10;}
	.st140{fill:none;stroke:#106952;stroke-width:1.3;stroke-linecap:round;stroke-miterlimit:10;}
	.st141{fill:none;stroke:#106952;stroke-width:3;stroke-linecap:round;stroke-miterlimit:10;}
	.st142{fill:#FFFFFF;stroke:#454545;stroke-width:0.7;stroke-linecap:round;stroke-miterlimit:10;}
	.st143{fill:#9E9C97;}
	.st144{fill:#414042;}
	.st145{fill:none;stroke:#58595B;stroke-width:1.5;stroke-linecap:round;stroke-miterlimit:10;}
	.st146{display:none;}
	.st147{display:inline;fill:#58595B;}
	.st148{fill:none;stroke:#58595B;stroke-width:1.6;stroke-linecap:round;stroke-miterlimit:10;}
	.st149{fill:#DB2027;}
	.st150{fill:#77818C;}
	.st151{fill:#313131;}
	.st152{fill:#BA2025;}
	.st153{fill:#495864;}
	.st154{fill:#4E5464;stroke:#4E5464;stroke-width:0.5;stroke-miterlimit:10;}
	.st155{fill:#BF202F;stroke:#BF202F;stroke-width:0.5;stroke-miterlimit:10;}
	.st156{fill:#BF202F;}
	.st157{fill:#F06F37;}
	.st158{fill:#6FC1CA;}
	.st159{fill:#EE2C3F;}
	.st160{fill:#EBEBEB;}
	.st161{fill:#C7416A;}
	.st162{fill:#424A5B;}
	.st163{fill:#9CA0A8;}
	.st164{fill:#FBF7F9;}
	.st165{fill:#1F1319;}
	.st166{fill:#0F1214;}
	.st167{fill:#B4B0B5;}
	.st168{fill:#618A3E;}
	.st169{fill:#911936;}
	.st170{fill:#B01F24;}
	.st171{fill:#F8C1D9;}
	.st172{fill:#FCFAFC;}
	.st173{fill:#F5EEF1;}
</style>
<g id="Layer_1">
	<path class="st169" d="M21.592,83.28c0.321,0,0.587,0.104,0.797,0.314c0.209,0.209,0.314,0.475,0.314,0.797
		c0,0.321-0.105,0.588-0.314,0.796c-0.21,0.209-0.475,0.314-0.797,0.314c-2.865,0-5.479-0.78-7.845-2.341
		c-2.366-1.561-4.305-3.516-5.817-5.866v7.097c0,0.321-0.129,0.588-0.386,0.796C7.286,85.396,6.98,85.5,6.626,85.5
		c-0.355,0-0.66-0.104-0.917-0.314c-0.258-0.208-0.386-0.475-0.386-0.796V58.938H2.136c-0.321,0-0.587-0.104-0.797-0.315
		c-0.209-0.208-0.314-0.474-0.314-0.796c0-0.321,0.105-0.595,0.314-0.821c0.21-0.225,0.475-0.338,0.797-0.338h4.49
		c0.321,0,0.619,0.113,0.893,0.338c0.273,0.226,0.411,0.5,0.411,0.821v12.369c1.866-2.542,4.216-3.813,7.048-3.813
		c1.835,0,3.283,0.427,4.345,1.278c1.062,0.854,1.593,2.036,1.593,3.549c0,1.513-0.483,2.736-1.448,3.669
		c-1.577,1.513-3.798,2.27-6.662,2.27c-1.062,0-2.012-0.113-2.849-0.338c1.384,1.834,3.13,3.371,5.238,4.61
		C17.303,82.66,19.436,83.28,21.592,83.28z M7.93,74.782c1.415,0.226,2.864,0.338,4.345,0.338c1.48,0,2.856-0.297,4.127-0.892
		c1.271-0.595,1.907-1.553,1.907-2.873c0-1.834-1.111-2.752-3.331-2.752c-2.993,0-5.343,1.578-7.048,4.731V74.782z"/>
	<path class="st169" d="M26.829,69.231H24.56c-0.322,0-0.588-0.104-0.797-0.315c-0.21-0.208-0.314-0.474-0.314-0.796
		c0-0.321,0.104-0.595,0.314-0.821c0.209-0.225,0.474-0.338,0.797-0.338h2.607c1.995,0,2.993,1.094,2.993,3.283
		c1.932-2.51,4.362-3.765,7.29-3.765c1.739,0,3.163,0.443,4.273,1.328c1.111,0.885,1.665,2.181,1.665,3.886v10.139
		c0,0.612,0.435,0.917,1.304,0.917h1.884c0.321,0,0.587,0.114,0.796,0.339c0.209,0.225,0.314,0.499,0.314,0.82
		c0,0.322-0.104,0.588-0.314,0.797c-0.209,0.209-0.475,0.314-0.796,0.314h-1.884c-2.606,0-3.91-1.046-3.91-3.138V71.693
		c0-0.965-0.298-1.705-0.894-2.22c-0.595-0.515-1.424-0.773-2.487-0.773c-2.961,0-5.31,1.545-7.048,4.635V84.39
		c0,0.321-0.129,0.588-0.387,0.796c-0.258,0.209-0.564,0.314-0.917,0.314c-0.355,0-0.66-0.104-0.917-0.314
		c-0.258-0.208-0.386-0.475-0.386-0.796V70.148C27.746,69.537,27.44,69.231,26.829,69.231z"/>
	<path class="st169" d="M54.963,84.39c0,0.321-0.129,0.588-0.386,0.796c-0.259,0.209-0.564,0.314-0.918,0.314
		s-0.66-0.104-0.918-0.314c-0.258-0.208-0.386-0.475-0.386-0.796V69.231h-3.186c-0.322,0-0.588-0.104-0.797-0.315
		c-0.209-0.208-0.314-0.474-0.314-0.796c0-0.321,0.104-0.595,0.314-0.821c0.209-0.225,0.475-0.338,0.797-0.338h4.683
		c0.74,0,1.111,0.371,1.111,1.111V84.39z M52.259,63.263c-0.289-0.321-0.434-0.707-0.434-1.159c0-0.45,0.145-0.837,0.434-1.158
		c0.289-0.321,0.692-0.484,1.207-0.484c0.514,0,0.924,0.162,1.231,0.484c0.305,0.321,0.458,0.708,0.458,1.158
		c0,0.452-0.153,0.838-0.458,1.159c-0.307,0.322-0.717,0.484-1.231,0.484C52.951,63.747,52.549,63.586,52.259,63.263z"/>
	<path class="st169" d="M75.031,83.135v-3.911c0-0.321,0.128-0.587,0.387-0.796c0.257-0.209,0.562-0.315,0.917-0.315
		c0.354,0,0.66,0.105,0.918,0.315c0.258,0.209,0.386,0.475,0.386,0.796v3.283c1.545,0.515,3.154,0.773,4.828,0.773
		c3.67,0,5.504-1.03,5.504-3.09c0-1.545-1.722-2.687-5.165-3.427c-0.162-0.032-0.515-0.113-1.062-0.242
		c-0.548-0.128-0.998-0.232-1.352-0.314c-0.354-0.08-0.942-0.273-1.762-0.579c-0.821-0.306-1.409-0.619-1.762-0.942
		c-0.966-0.868-1.448-1.938-1.448-3.21c0-1.271,0.425-2.3,1.28-3.09c0.852-0.788,1.794-1.304,2.823-1.545
		c1.031-0.241,2.157-0.362,3.38-0.362c2.252,0,4.328,0.434,6.228,1.304c0.579,0.258,0.868,0.612,0.868,1.061v3.718
		c0,0.322-0.128,0.588-0.386,0.796c-0.258,0.211-0.564,0.314-0.917,0.314c-0.355,0-0.66-0.103-0.918-0.314
		c-0.258-0.208-0.386-0.474-0.386-0.796v-3.09c-1.288-0.515-2.785-0.773-4.49-0.773c-3.283,0-4.925,0.934-4.925,2.8
		c0,0.675,0.218,1.142,0.652,1.4c0.434,0.258,0.755,0.451,0.965,0.579c0.209,0.129,0.588,0.259,1.135,0.387
		c0.773,0.193,1.561,0.369,2.366,0.531c0.804,0.161,1.464,0.306,1.979,0.434c0.514,0.129,1.167,0.346,1.955,0.652
		s1.408,0.651,1.86,1.037c1.126,0.902,1.69,2.077,1.69,3.525c0,1.448-0.476,2.6-1.424,3.452c-0.95,0.853-1.979,1.4-3.09,1.641
		c-1.111,0.241-2.31,0.362-3.597,0.362c-2.543,0-4.731-0.419-6.565-1.255C75.322,83.988,75.031,83.617,75.031,83.135z"/>
	<path class="st169" d="M4.379,29.834H2.111c-0.322,0-0.588-0.104-0.797-0.315C1.104,29.311,1,29.046,1,28.724
		c0-0.321,0.104-0.595,0.314-0.821c0.209-0.225,0.475-0.338,0.797-0.338h2.607c1.994,0,2.993,1.094,2.993,3.283
		c1.931-2.51,4.36-3.765,7.289-3.765c1.739,0,3.163,0.443,4.273,1.328c1.111,0.885,1.665,2.181,1.665,3.886v10.139
		c0,0.612,0.435,0.917,1.304,0.917h1.884c0.321,0,0.587,0.114,0.796,0.339s0.314,0.499,0.314,0.82c0,0.322-0.104,0.588-0.314,0.797
		s-0.475,0.314-0.796,0.314h-1.884c-2.606,0-3.91-1.046-3.91-3.138V32.296c0-0.965-0.298-1.705-0.894-2.22
		c-0.595-0.515-1.424-0.773-2.487-0.773c-2.961,0-5.31,1.545-7.048,4.635v11.056c0,0.321-0.129,0.588-0.386,0.796
		c-0.259,0.209-0.564,0.314-0.918,0.314s-0.66-0.104-0.918-0.314c-0.258-0.208-0.386-0.475-0.386-0.796V30.751
		C5.297,30.14,4.991,29.834,4.379,29.834z"/>
	<path class="st159" d="M44.368,55.038c0,2.589-3.269,2.575-3.31,0.054c-0.006-0.369,0.003-44.414,0.003-44.414
		c0-3.632,0.747-6.209,2.241-7.734c1.495-1.523,2.806-1.475,4.346-0.292c0.492,0.292,0.781,0.91,0.759,1.479
		c0,0-0.235,6.546-0.684,6.546c-0.452,0-0.752-0.176-1.056-0.475c-0.759-0.747-1.049-5.662-1.049-5.662
		c-2.373,0.087-1.302,3.611-1.302,6.199C44.316,10.74,44.368,54.487,44.368,55.038z"/>
	<path class="st169" d="M68.254,54.311l1.545,0.145c2.631-0.002,2.864-0.66,3.862-1.979c0.773-0.999,1.625-2.463,2.559-4.393
		l1.641-3.38l-7.869-15.931c-0.129-0.289-0.121-0.58,0.024-0.869s0.369-0.507,0.675-0.651c0.306-0.145,0.612-0.217,0.918-0.217
		s0.571,0.241,0.796,0.724l6.808,14.291l6.807-14.291c0.225-0.482,0.484-0.724,0.773-0.724c0.772,0,1.304,0.289,1.593,0.868
		c0.065,0.161,0.096,0.314,0.096,0.459c0,0.145-0.032,0.282-0.096,0.41l-9.849,20.276c-0.611,1.287-1.102,2.245-1.471,2.873
		c-0.371,0.628-0.91,1.392-1.618,2.294c-1.384,1.641-2.162,2.51-5.696,2.461c-0.676-0.009-1.191-0.048-1.545-0.145
		c-0.708-0.161-1.014-0.571-0.918-1.231C67.385,54.64,67.707,54.311,68.254,54.311z"/>
	<path class="st169" d="M32.337,44.994c0,0.321-0.129,0.588-0.386,0.796c-0.259,0.209-0.564,0.314-0.918,0.314
		s-0.66-0.104-0.918-0.314c-0.258-0.208-0.386-0.475-0.386-0.796V29.834h-3.186c-0.322,0-0.588-0.104-0.797-0.315
		c-0.209-0.208-0.314-0.474-0.314-0.796c0-0.321,0.104-0.595,0.314-0.821c0.209-0.225,0.475-0.338,0.797-0.338h4.683
		c0.74,0,1.111,0.371,1.111,1.111V44.994z"/>
	<path class="st169" d="M65.768,43.374c0.337,0.066,0.897,0.212,0.897,1.153c0,0.484-0.456,0.923-0.871,0.973
		c-3.167,0.376-5.515,0.214-6.391-0.984c-0.785-1.075-0.637-2.225-0.637-4.35V29.834h-2.704c-0.321,0-0.588-0.104-0.796-0.315
		c-0.209-0.208-0.314-0.474-0.314-0.796c0-0.321,0.104-0.595,0.314-0.821c0.208-0.225,0.475-0.338,0.796-0.338h2.704v-5.489
		c0-0.321,0.128-0.587,0.386-0.796c0.258-0.209,0.564-0.314,0.918-0.314s0.659,0.104,0.918,0.314
		c0.257,0.209,0.386,0.475,0.386,0.796v5.489h4.865c0.321,0,0.588,0.113,0.797,0.338c0.208,0.226,0.314,0.5,0.314,0.821
		c0,0.322-0.105,0.588-0.314,0.796c-0.209,0.211-0.476,0.315-0.797,0.315h-4.865v10.331c0.001,1.358-0.061,2.314,0.1,2.726
		C61.791,43.703,64.803,43.185,65.768,43.374z"/>
	<path class="st169" d="M69.697,82.852c0.337,0.066,0.897,0.212,0.897,1.153c0,0.484-0.456,0.923-0.871,0.973
		c-3.167,0.376-5.515,0.214-6.391-0.984c-0.785-1.075-0.637-2.225-0.637-4.35V69.313h-2.704c-0.321,0-0.588-0.104-0.796-0.315
		c-0.209-0.208-0.314-0.474-0.314-0.796c0-0.321,0.104-0.595,0.314-0.821c0.208-0.225,0.475-0.338,0.796-0.338h2.704v-5.489
		c0-0.321,0.128-0.587,0.386-0.796c0.258-0.209,0.564-0.314,0.918-0.314c0.354,0,0.659,0.104,0.918,0.314
		c0.257,0.209,0.386,0.475,0.386,0.796v5.489h4.865c0.321,0,0.588,0.113,0.797,0.338c0.208,0.226,0.314,0.5,0.314,0.821
		c0,0.322-0.105,0.588-0.314,0.796c-0.209,0.211-0.476,0.315-0.797,0.315h-4.865v10.331c0.001,1.358-0.061,2.314,0.1,2.726
		C65.72,83.181,68.732,82.664,69.697,82.852z"/>
	<g>
		<path class="st159" d="M29.777,12.993c1.835,1.435,3.14,3.284,4.154,5.356c0.317,0.648,0.589,1.315,0.827,1.995
			c0.073-0.014,0.1-0.069,0.137-0.112c0.446-0.518,0.809-1.09,1.112-1.702c0.042-0.084,0.069-0.162,0.03-0.266
			c-0.964-2.559-2.324-4.851-4.484-6.593c-1.423-1.148-3.046-1.834-4.868-2.044c-0.919-0.106-1.834-0.087-2.751,0.021
			c-0.151,0.018-0.264,0.072-0.358,0.204c-0.195,0.274-0.405,0.537-0.582,0.865c0.398,0.002,0.758,0.019,1.118,0.048
			C26.226,10.937,28.111,11.69,29.777,12.993z"/>
		<path class="st159" d="M30.6,9.351c3.146,1.596,5.3,4.862,6.051,8.242c0.349-0.915,0.802-4.675-1.562-7.544
			c-1.275-1.547-2.906-2.731-5.114-2.927c-1.934-0.172-3.914,0.413-5.264,1.532C25.491,8.335,28.269,8.169,30.6,9.351z"/>
		<path class="st159" d="M22.107,13.986c-0.052-0.008-0.223,0.001-0.26,0.108c-0.476,2.898,0.881,5.383,2.526,6.827
			c1.76,1.546,5.035,2.172,6.638,1.634c0.107-0.036,0.168-0.05,0.112-0.194C29.349,17.753,24.157,14.309,22.107,13.986z"/>
		<path class="st159" d="M51.952,25.557c-1.692-1.32-4.955-0.811-9.973,1.553c-1.577,0.743-2.857,0.891-3.913,0.457
			c-1.926-0.795-2.95-3.506-3.673-5.493c-0.219-0.603-0.403-1.132-0.597-1.581c-0.455-1.542-1.667-3.516-2.864-4.951
			c-1.406-1.686-3.119-2.918-5.27-3.481c-1.002-0.262-2.022-0.351-3.057-0.302c-0.121,0.006-0.181,0.047-0.217,0.158
			c-0.092,0.289-0.188,0.577-0.287,0.863c-0.05,0.145-0.026,0.211,0.146,0.23c0.729,0.079,1.438,0.249,2.13,0.49
			c1.912,0.667,3.488,1.824,4.81,3.34c1.337,1.532,2.319,3.276,3.043,5.169c0.011,0.022,0.02,0.022,0.03,0.039
			c0.095,0.231,0.188,0.468,0.27,0.703c0.818,2.353,2.015,5.549,4.764,6.683c1.587,0.654,3.452,0.488,5.543-0.497
			c4.673-2.2,7.133-2.364,7.871-1.787c0.442,0.344,0.381,1.203,0.251,1.863c-0.288,1.475-1.133,2.488-2.027,3.56
			c-1.078,1.293-2.194,2.631-2.091,4.675c0.113,2.264,2.052,3.405,2.134,3.453c0.159,0.091,0.333,0.134,0.503,0.134
			c0.35,0,0.689-0.181,0.876-0.505c0.279-0.483,0.112-1.1-0.371-1.379c-0.011-0.006-1.068-0.646-1.126-1.804
			c-0.063-1.257,0.683-2.15,1.627-3.282c0.97-1.163,2.069-2.482,2.457-4.466C53.29,27.632,52.956,26.34,51.952,25.557z"/>
	</g>
</g>
<g id="Layer_2">
</g>
</svg>
