<?xml version="1.0" encoding="utf-8"?>
<!-- Generator: Adobe Illustrator 19.2.0, SVG Export Plug-In . SVG Version: 6.00 Build 0)  -->
<svg version="1.1" id="Layer_1" xmlns:sketch="http://www.bohemiancoding.com/sketch/ns"
	 xmlns="http://www.w3.org/2000/svg" xmlns:xlink="http://www.w3.org/1999/xlink" x="0px" y="0px" viewBox="0 0 50 50"
	 style="enable-background:new 0 0 50 50;" xml:space="preserve">
<style type="text/css">
	.st0{fill:#F8F5F7;}
</style>
<title></title>
<g id="Pinterest">
	<path class="st0" d="M15.5,21.329c0,2.569,0.918,4.854,2.887,5.705c0.323,0.14,0.612,0.005,0.706-0.374
		c0.065-0.262,0.219-0.923,0.288-1.199c0.094-0.375,0.058-0.506-0.203-0.832c-0.568-0.709-0.931-1.628-0.931-2.929
		c0-3.774,2.666-7.153,6.941-7.153c3.786,0,5.866,2.451,5.866,5.723c0,4.306-1.799,7.94-4.469,7.94
		c-1.475,0-2.579-1.292-2.225-2.877c0.424-1.892,1.244-3.934,1.244-5.299c0-1.222-0.619-2.242-1.901-2.242
		c-1.508,0-2.719,1.652-2.719,3.866c0,1.41,0.45,2.363,0.45,2.363s-1.543,6.925-1.813,8.138c-0.539,2.415-0.081,5.376-0.042,5.675
		c0.023,0.177,0.238,0.219,0.335,0.085c0.139-0.192,1.935-2.541,2.545-4.887c0.173-0.664,0.992-4.105,0.992-4.105
		c0.49,0.99,1.921,1.862,3.444,1.862c4.532,0,7.606-4.377,7.606-10.235c0-4.43-3.542-8.555-8.925-8.555
		C18.877,12,15.5,17.087,15.5,21.329z"/>
</g>
<path class="st0" d="M25,0.25C11.33,0.25,0.25,11.33,0.25,25S11.33,49.75,25,49.75S49.75,38.67,49.75,25S38.67,0.25,25,0.25z
	 M25,47.83C12.39,47.83,2.17,37.61,2.17,25S12.39,2.17,25,2.17S47.83,12.39,47.83,25S37.61,47.83,25,47.83z"/>
</svg>
